<svg xmlns="http://www.w3.org/2000/svg" width="446.66" height="186.1" viewBox="0 0 446.66 186.1"><defs><style>.a{fill:#ffd100;}.b{fill:#231f20;}.c{fill:#f0f1f1;opacity:0.9;}.d{fill:#124375;}.e{fill:none;}.f{fill:#0058a0;}.g{fill:#1c75b8;}</style></defs><path class="a" d="M335.13,132.48v.1a45.71,45.71,0,0,0,4.57,20.62l57.87,21.62a41.79,41.79,0,0,0,15.2-10c.8-.82,1.55-1.66,2.27-2.51Z"/><path class="a" d="M425.39,132.58a47.9,47.9,0,0,0-1.94-13.8L356.7,93.85a44.79,44.79,0,0,0-8.47,6.7,45.73,45.73,0,0,0-6.71,8.44l83.35,31.14A54.46,54.46,0,0,0,425.39,132.58Z"/><path class="b" d="M407.31,87.65a1.84,1.84,0,0,0,2,2.4,1.84,1.84,0,0,0,1.45-1.23c3.61-10.7,9.81-12.15,14.39-11.47a1.83,1.83,0,0,0,2.07-1.55,1.81,1.81,0,0,0-1.54-2.07C413.91,72,408.91,82.89,407.31,87.65Z"/><path class="b" d="M394.06,81.18a1.83,1.83,0,0,0,0,1.9,1.78,1.78,0,0,0,.62.6,1.83,1.83,0,0,0,2.51-.64c2.55-4.33,7.52-15.24-1.5-23a1.83,1.83,0,0,0-2.39,2.77C396.82,65.81,399.79,71.45,394.06,81.18Z"/><path class="b" d="M412.53,100.55q-12.87-13.11-31.79-13.11a45.18,45.18,0,0,0-24,6.41l66.75,24.93A43.67,43.67,0,0,0,412.53,100.55Z"/><path class="b" d="M424.87,140.13,341.52,109a44,44,0,0,0-6.39,23.49L415,162.34A42.87,42.87,0,0,0,424.87,140.13Z"/><path class="b" d="M348.23,164.85q13.09,12.85,32.51,12.86a47.46,47.46,0,0,0,16.83-2.89L339.7,153.2A43.26,43.26,0,0,0,348.23,164.85Z"/><path class="c" d="M322.63,151.79h0c-11.09-3.92-16-14.68-17.19-20.42-.71-3.48-.76-8.15,5.21-13.33,14.3-12.45,48.48-15.94,65.4-10,3.92,1.39,5.41,2.84,5.62,3.24.58,2.06-.84,11.35-8.08,21.32a50,50,0,0,1-39.5,20.74A30.88,30.88,0,0,1,322.63,151.79Z"/><path class="c" d="M442,179.63c-4.51,3.73-15.11,9-26.2,5.09a31.11,31.11,0,0,1-9.92-6,50,50,0,0,1-17.71-40.95c.64-12.3,5.37-20.42,7.24-21.74.29-.1,2.36-.3,6.28,1.09,16.91,6,41.32,30.16,44.63,48.83C447.7,173.76,444.73,177.36,442,179.63Z"/><path class="d" d="M65.48,173.74c-12.78,0-24.77-4.23-32.6-11.39l-.19,9.19H0V0H36.65V32.15c0,9.15-.2,18.9-.56,27.7,7.62-5.58,18.19-8.75,29.39-8.75a58,58,0,0,1,41.43,17.05c11.27,11.33,17.48,27.05,17.48,44.27s-6.21,32.94-17.48,44.27A58,58,0,0,1,65.48,173.74ZM60.89,86.55c-14.73,0-24.64,10.4-24.64,25.87s9.91,25.87,24.64,25.87c15,0,25-10.4,25-25.87S75.87,86.55,60.89,86.55Z"/><path class="e" d="M178,143c12,0,22.33-5.26,30.58-15.63l.85-1.06.16.23c-.24-1.22-.45-2.44-.62-3.69h-59.5C153,135.5,163.58,143,178,143Z"/><path class="f" d="M221.85,72.28a49.54,49.54,0,0,0-3.35-4.16c-10.32-11.4-25.57-17.67-42.92-17.67-35.4,0-61.1,26.24-61.1,62.41,0,17.79,6,33.11,17.33,44.3s27.16,17.23,45.53,17.23c11.8,0,29.17-2.08,46.31-19.28a57.93,57.93,0,0,1-14.07-28.57l-.16-.23-.85,1.06C200.32,137.74,190,143,178,143c-14.41,0-25-7.5-28.53-20.15h83.17l.09-.9C234.72,101.8,231,84.77,221.85,72.28ZM154.23,95.43C157.6,87,165.33,80,175.16,80s16.67,6.77,19.07,15.42Z"/><path class="g" d="M302.45,122.27a23.89,23.89,0,0,1,6.17-7.93c5.39-4.69,13-8.25,22.58-10.6l.85-.21-.09-.86c-1.7-16.72-8.47-30.4-19.58-39.58-10-8.27-23-12.64-37.63-12.64-35.4,0-61.1,26.24-61.1,62.41,0,17.79,6,33.11,17.32,44.3s27.17,17.23,45.53,17.23c16.57,0,30.38-5,42.2-15.38l1.12-1-1.33-.67c-12.27-6.13-16.11-18.09-17-21.61l-.37-1.49-1.22,1A36.14,36.14,0,0,1,277.16,143c-14.42,0-25-7.5-28.54-20.15h53.56ZM254.76,95.43C258.13,87,265.86,80,275.69,80s16.67,6.77,19.07,15.42Z"/></svg>